<svg width="38" height="30" viewBox="0 0 38 30" fill="none" xmlns="http://www.w3.org/2000/svg">
<path d="M1.53535 6.3257e-05C1.12815 6.3257e-05 0.737629 0.158098 0.449695 0.439402C0.16176 0.720706 0 1.10224 0 1.50006C0 1.89788 0.16176 2.27941 0.449695 2.56072C0.737629 2.84202 1.12815 3.00006 1.53535 3.00006H4.94384L8.97261 18.75C9.31499 20.085 10.5387 21 11.9466 21H31.0924C32.4789 21 33.6565 20.1 34.0204 18.795L38 4.50005H34.785L31.0909 18H11.9451L7.91782 2.25006C7.75146 1.6039 7.36797 1.03098 6.82876 0.623033C6.28955 0.215087 5.62581 -0.00427939 4.94384 6.3257e-05H1.53535ZM29.1717 21C26.6461 21 24.5657 23.0325 24.5657 25.5C24.5657 27.9675 26.6461 30 29.1717 30C31.6974 30 33.7778 27.9675 33.7778 25.5C33.7778 23.0325 31.6974 21 29.1717 21ZM15.3535 21C12.8279 21 10.7475 23.0325 10.7475 25.5C10.7475 27.9675 12.8279 30 15.3535 30C17.8792 30 19.9596 27.9675 19.9596 25.5C19.9596 23.0325 17.8792 21 15.3535 21ZM19.9596 6.3257e-05V7.50005H15.3535L21.4949 13.5L27.6364 7.50005H23.0303V6.3257e-05H19.9596ZM15.3535 24C16.2195 24 16.8889 24.654 16.8889 25.5C16.8889 26.346 16.2195 27 15.3535 27C14.4876 27 13.8182 26.346 13.8182 25.5C13.8182 24.654 14.4876 24 15.3535 24ZM29.1717 24C30.0377 24 30.7071 24.654 30.7071 25.5C30.7071 26.346 30.0377 27 29.1717 27C28.3058 27 27.6364 26.346 27.6364 25.5C27.6364 24.654 28.3058 24 29.1717 24Z" fill="white"/>
</svg>
