<svg width="32" height="30" viewBox="0 0 32 30" fill="none" xmlns="http://www.w3.org/2000/svg">
<path d="M30.6631 22.2035L27.4695 19.2081C26.8915 18.6663 26.1676 18.2818 25.3749 18.0956C24.5822 17.9094 23.7505 17.9285 22.9685 18.1508C22.1865 18.3731 21.4834 18.7904 20.9344 19.358C20.3854 19.9257 20.0109 20.6225 19.8509 21.3741C14.5846 20.4505 9.46257 15.6661 9.14376 11.3899C10.0391 11.2354 10.863 10.829 11.5061 10.2246C12.3528 9.4304 12.8284 8.35326 12.8284 7.23012C12.8284 6.10699 12.3528 5.02984 11.5061 4.23561L8.31339 1.24025C7.4666 0.446126 6.31817 0 5.1207 0C3.92323 0 2.77481 0.446126 1.92801 1.24025C-7.65096 10.2246 21.0841 37.176 30.6631 28.1917C31.5093 27.3974 31.9846 26.3204 31.9846 25.1976C31.9846 24.0747 31.5093 22.9978 30.6631 22.2035Z" fill="#D1A33C"/>
</svg>
