<svg width="40" height="40" viewBox="0 0 40 40" fill="none" xmlns="http://www.w3.org/2000/svg">
<path d="M40 4.73501C38.4953 5.54271 36.904 6.07951 35.275 6.32886C36.9917 5.0754 38.2752 3.09058 38.8825 0.750366C37.275 1.92372 35.5163 2.75 33.6825 3.19346C32.5581 1.71585 31.0986 0.688577 29.4937 0.245115C27.8888 -0.198348 26.2126 -0.037505 24.6829 0.706747C23.1533 1.451 21.8408 2.74426 20.9161 4.4185C19.9913 6.09274 19.4971 8.07058 19.4975 10.095C19.4975 10.895 19.5525 11.6643 19.6875 12.3966C16.4252 12.1997 13.2334 11.1577 10.3208 9.33848C7.40811 7.51929 4.84023 4.96398 2.785 1.8396C1.73205 4.06072 1.40652 6.69228 1.87471 9.19843C2.34289 11.7046 3.56959 13.8969 5.305 15.3289C4.00689 15.2861 2.73618 14.8597 1.6 14.0858V14.1966C1.60217 16.5272 2.25666 18.7857 3.45329 20.5919C4.64992 22.3981 6.31562 23.6418 8.17 24.1136C7.46847 24.3411 6.74547 24.4529 6.02 24.4459C5.49897 24.4573 4.97846 24.3995 4.4675 24.2736C4.99735 26.2768 6.01872 28.0285 7.39099 29.2876C8.76324 30.5468 10.4189 31.2514 12.13 31.3044C9.22735 34.0984 5.64743 35.614 1.9625 35.6091C1.29 35.6091 0.645 35.5721 0 35.4706C3.74971 38.4446 8.11919 40.0178 12.58 39.9999C27.67 39.9999 35.92 24.6151 35.92 11.2797C35.92 10.8335 35.9075 10.4027 35.89 9.97504C37.5074 8.55037 38.9002 6.77465 40 4.73501Z" fill="#D1A33C"/>
</svg>
